# xmcd
#
# Track frame offsets:
#	150
#	2557
#	18952
#	35006
#	52178
#	71994
#	97137
#	125731
#	143923
#	163490
#	178593
#	194581
#	208509
#	226848
#	246235
#
# Disc length: 3533 seconds
#
# Revision: 1
# Processed by: cddbd v1.5.2PL0 Copyright (c) Steve Scherf et al.
# Submitted via: audiograbber 1.83.01
#
DISCID=e40dcb0f
DTITLE=Keak Da Sneak - The Farm Boyz (Special Edition)
DYEAR=2006
DGENRE=Rap
TTITLE0=Young Bliff, Damu - Intro
TTITLE1=Keak Da Sneak, Dola Ike, Bra Hef - Yadameen
TTITLE2=Keak Da Sneak, Dola Ike, Bra Hef - U Not A Hoe
TTITLE3=Keak Da Sneak, Messy Marv, Demon - Flava
TTITLE4=Keak Da Sneak, Mac Dre, Mark B. - Sizzlin'
TTITLE5=Keak Da Sneak, Y. Scream, Big Slep Rock, Dola Ike, Bra Hef, AP - Hi-Tek
TTITLE5=Fashion
TTITLE6=Keak Da Sneak, Highest Paid, Yella, Silky D, Dola Ike, Bra Hef, Bueno, 
TTITLE6=The D.O.C. - Shittin' On Em'
TTITLE7=Keak Da Sneak, Bra Hef, Dola Ike, Ren - On Mine
TTITLE8=Keak Da Sneak - Gettaway
TTITLE9=Keak Da Sneak, Messy Marv - Go Head Baby
TTITLE10=Keak Da Sneak, Dola Ike, Bra Hef - Million Dollar Heights
TTITLE11=Keak Da Sneak, Dola Ike, Bra Hef - U Know U Wit It
TTITLE12=Keak Da Sneak, Bra Hef - Bigger Than Rap
TTITLE13=Keak Da Sneak, Wodie, Dola Ike, Big Scoot - Call Da Police
TTITLE14=Keak Da Sneak, Dola Ike, Bra Hef, Big Scoot - Rap 4 Runnin' Tha Game
EXTD=Cashflow420.com
EXTT0=
EXTT1=
EXTT2=
EXTT3=
EXTT4=
EXTT5=
EXTT6=
EXTT7=
EXTT8=
EXTT9=
EXTT10=
EXTT11=
EXTT12=
EXTT13=
EXTT14=
PLAYORDER=
